<svg width="19" height="20" viewBox="0 0 19 20" fill="none" xmlns="http://www.w3.org/2000/svg">
<path d="M18.4999 10.2194C18.4999 9.59937 18.4399 8.95938 18.3399 8.35938H9.67993V11.8994H14.6399C14.4399 13.0394 13.7799 14.0394 12.7999 14.6794L15.7599 16.9794C17.4999 15.3594 18.4999 12.9994 18.4999 10.2194Z" fill="#4280EF"/>
<path d="M9.67998 19.1793C12.16 19.1793 14.24 18.3593 15.76 16.9593L12.8 14.6793C11.98 15.2393 10.92 15.5593 9.67998 15.5593C7.27998 15.5593 5.25998 13.9393 4.51998 11.7793L1.47998 14.1193C3.03998 17.2193 6.19998 19.1793 9.67998 19.1793Z" fill="#34A353"/>
<path d="M4.51988 11.7599C4.13988 10.6199 4.13988 9.37988 4.51988 8.23988L1.47988 5.87988C0.179883 8.47988 0.179883 11.5399 1.47988 14.1199L4.51988 11.7599Z" fill="#F6B704"/>
<path d="M9.67998 4.45968C10.98 4.43968 12.26 4.93969 13.2 5.83968L15.82 3.19968C14.16 1.63968 11.96 0.799685 9.67998 0.819685C6.19998 0.819685 3.03998 2.77969 1.47998 5.87969L4.51998 8.23968C5.25998 6.05968 7.27998 4.45968 9.67998 4.45968Z" fill="#E54335"/>
</svg>
